/* XPM */
static char * C:\Users\Main_000\Documents\GitHub\genix\share\pixmaps\genix32_xpm[] = {
"32 32 92 2",
"  	c None",
". 	c #06F2B8",
"+ 	c #05F2B8",
"@ 	c #01F2B8",
"# 	c #03F2B8",
"$ 	c #B7F8DD",
"% 	c #FFFFFF",
"& 	c #E4FCF1",
"* 	c #04F2B8",
"= 	c #5CF3C1",
"- 	c #69F4C4",
"; 	c #7BF5C9",
"> 	c #FBFFFD",
", 	c #A3F7D6",
"' 	c #55F3C0",
") 	c #EDFDF6",
"! 	c #EFFDF7",
"~ 	c #A9F7D8",
"{ 	c #B9F8DE",
"] 	c #F2FEF8",
"^ 	c #33F2BB",
"/ 	c #D0FAE8",
"( 	c #EBFDF5",
"_ 	c #A7F7D7",
": 	c #99F6D2",
"< 	c #A8F7D7",
"[ 	c #65F4C3",
"} 	c #7DF5C9",
"| 	c #8AF5CD",
"1 	c #C1F9E2",
"2 	c #C1F9E1",
"3 	c #E2FCF1",
"4 	c #D6FBEB",
"5 	c #85F5CC",
"6 	c #FDFFFE",
"7 	c #79F5C8",
"8 	c #81F5CA",
"9 	c #84F5CB",
"0 	c #85F5CB",
"a 	c #E5FCF2",
"b 	c #6DF4C5",
"c 	c #E7FCF3",
"d 	c #CDFAE7",
"e 	c #9BF6D3",
"f 	c #C9FAE5",
"g 	c #47F3BD",
"h 	c #F7FEFB",
"i 	c #EEFDF7",
"j 	c #C0F9E1",
"k 	c #53F3BF",
"l 	c #5DF3C1",
"m 	c #4AF3BE",
"n 	c #F5FEFA",
"o 	c #B4F8DC",
"p 	c #36F2BB",
"q 	c #59F3C1",
"r 	c #20F2B9",
"s 	c #EEFDF6",
"t 	c #75F4C7",
"u 	c #D1FAE8",
"v 	c #BFF9E0",
"w 	c #67F4C4",
"x 	c #D8FBEC",
"y 	c #E0FCF0",
"z 	c #72F4C6",
"A 	c #89F5CD",
"B 	c #6AF4C4",
"C 	c #8CF5CE",
"D 	c #D2FAE9",
"E 	c #9CF6D3",
"F 	c #CCFAE6",
"G 	c #E9FDF4",
"H 	c #28F2BA",
"I 	c #97F6D1",
"J 	c #BBF9DF",
"K 	c #86F5CC",
"L 	c #F0FDF7",
"M 	c #5AF3C1",
"N 	c #6FF4C5",
"O 	c #BCF9DF",
"P 	c #CEFAE7",
"Q 	c #3DF3BC",
"R 	c #B8F8DE",
"S 	c #AEF8DA",
"T 	c #F6FEFB",
"U 	c #DAFBED",
"V 	c #E3FCF1",
"W 	c #27F2BA",
"X 	c #CBFAE6",
"Y 	c #78F4C8",
"Z 	c #90F6CF",
"` 	c #B0F8DB",
"        . . . . . . . . . . . . . . . . . . . . . . . .         ",
"  . . . . . . . . . . . . . . . . . . . . . . . . . . . . .     ",
"  . . . . . . . . . . . . . . . . . . . . . . . . . . . . . .   ",
". . . . . . . . . . . . . . . . . . . . . . . . . . . . . . .   ",
". . . . . . . . . . . . . . . . . . . . . . . . . . . . . . .   ",
". . . . . . . . . . . . . . . . . . . . . . . . . . . . . . .   ",
". . . . . . . . . . . . . . . . . . . . . . . . . . . . . . .   ",
". . . . . . . . . . . . . + @ @ @ @ @ @ # . . . . . . . . . .   ",
". . . . . . . . . . . . . $ % % % % % % & * . . . . . . . . .   ",
". . . . . . . . . . . . . = - - - - - ; > , . . . . . . . . .   ",
". . . . . . . . . ' ) ! ! ! ! ! ! ! ! ~ { ] ^ . . . . . . . .   ",
". . . . . . . . . / ( _ _ _ _ _ _ _ _ : ^ < [ . . . . . . . .   ",
". . . . . . . . } % | 1 2 . . . . . . . . . . . . . . . . . .   ",
". . . . . . . + 3 4 5 6 7 . . + 8 9 9 9 9 9 9 0 + . . . . . .   ",
". . . . . . . + a b c d . . . e 6 ! ! ! ! ! ! f . . . . . . .   ",
". . . . . . . . g _ h ' . . ^ i j k - - - - l . . . . . . . .   ",
". . . . . . . . m n o p . . $ n q n % % % % _ r . . . . . . .   ",
". . . . . . . . j s t u . . = k + @ @ @ v ( w d . . . . . . .   ",
". . . . . . . . x y z 6 A . . . . . . B 6 C D y + . . . . . .   ",
". . . . . . . . B > E F G H . . . . . I J K 6 ; . . . . . . .   ",
". . . . . . . . . j L M h _ N O O O O O O ( P . . . . . . . .   ",
". . . . . . . . . Q n R S T k U V V V V V y ' . . . . . . . .   ",
". . . . . . . . . . k = W ) X 9 9 9 Y . . . . . . . . . . . .   ",
". . . . . . . . . . . . . Z ! ! ! ! ` . . . . . . . . . . . .   ",
". . . . . . . . . . . . . . . . . . . . . . . . . . . . . . .   ",
". . . . . . . . . . . . . . . . . . . . . . . . . . . . . . .   ",
". . . . . . . . . . . . . . . . . . . . . . . . . . . . . . .   ",
". . . . . . . . . . . . . . . . . . . . . . . . . . . . . . .   ",
"  . . . . . . . . . . . . . . . . . . . . . . . . . . . . . .   ",
"  . . . . . . . . . . . . . . . . . . . . . . . . . . . . . .   ",
"    . . . . . . . . . . . . . . . . . . . . . . . . . . . .     ",
"                                                                "};
