/* XPM */
static char * C:\Users\Main_000\Documents\GitHub\genix\share\pixmaps\genix64_xpm[] = {
"64 64 80 1",
" 	c None",
".	c #06F2B8",
"+	c #1DF2B9",
"@	c #29F2BA",
"#	c #07F2B8",
"$	c #CEFAE7",
"%	c #FDFFFE",
"&	c #FCFFFD",
"*	c #8CF5CE",
"=	c #8AF5CD",
"-	c #FEFFFE",
";	c #FFFFFF",
">	c #EFFDF7",
",	c #23F2B9",
"'	c #64F4C3",
")	c #89F5CD",
"!	c #BBF8DF",
"~	c #B0F8DA",
"{	c #EBFDF5",
"]	c #F7FEFB",
"^	c #4DF3BE",
"/	c #D7FBEB",
"(	c #E1FCF0",
"_	c #BBF9DF",
":	c #8BF5CD",
"<	c #FEFFFF",
"[	c #C7F9E4",
"}	c #A5F7D6",
"|	c #69F4C4",
"1	c #14F2B8",
"2	c #F6FEFA",
"3	c #B6F8DD",
"4	c #67F4C4",
"5	c #E0FCEF",
"6	c #BCF9E0",
"7	c #E0FCF0",
"8	c #1CF2B9",
"9	c #4AF3BE",
"0	c #BCF9DF",
"a	c #98F6D2",
"b	c #CFFAE8",
"c	c #74F4C7",
"d	c #E7FCF3",
"e	c #B9F8DE",
"f	c #9AF6D2",
"g	c #34F2BB",
"h	c #47F3BD",
"i	c #DFFCEF",
"j	c #88F5CC",
"k	c #62F4C2",
"l	c #7BF5C9",
"m	c #65F4C3",
"n	c #FBFFFD",
"o	c #3CF3BC",
"p	c #50F3BF",
"q	c #EEFDF6",
"r	c #2AF2BA",
"s	c #30F2BA",
"t	c #E4FCF2",
"u	c #4EF3BE",
"v	c #C6F9E4",
"w	c #9EF7D4",
"x	c #B4F8DC",
"y	c #C9FAE5",
"z	c #87F5CC",
"A	c #4EF3BF",
"B	c #13F2B8",
"C	c #CBFAE6",
"D	c #DAFBEC",
"E	c #D4FBEA",
"F	c #10F2B8",
"G	c #91F6CF",
"H	c #24F2B9",
"I	c #9BF6D3",
"J	c #CCFAE6",
"K	c #A4F7D6",
"L	c #1BF2B9",
"M	c #CFFAE7",
"N	c #EDFDF6",
"O	c #85F5CB",
"                                                                ",
"     ......................................................     ",
"   .........................................................    ",
"  ...........................................................   ",
"  ............................................................  ",
" .............................................................  ",
" .............................................................  ",
" .............................................................. ",
" .............................................................. ",
" .............................................................. ",
" .............................................................. ",
" .............................................................. ",
" .............................................................. ",
" .............................................................. ",
" .............................................................. ",
" ..........................+@@@@@@@@@@@@@#..................... ",
" .........................#$%%%%%%%%%%%%&*..................... ",
" .........................=-;;;;;;;;;;;;;>,.................... ",
" .........................'))))))))))))!;;~.................... ",
" ......................................,{;]^................... ",
" ..................,/(((((((((((((((((_#:<;[#.................. ",
" ..................};;;;;;;;;;;;;;;;;;%|1/;%|.................. ",
" .................^2;](((((((((((((((((3.45(_.................. ",
" ................#6;;}......................................... ",
" ................|%;789_0a..................................... ",
" ...............1/;-=#[;-=..................................... ",
" ...............:<;b#c%;b#..................................... ",
" ..............+d;]415;]4......8~00000000000000e8.............. ",
" ..............+>;_.f<;_.......};;;;;;;;;;;;;;;[#.............. ",
" ...............}>g9>;>g......h>;]((((((((((((i^............... ",
" ...............,j.0;;}.......0;;}............................. ",
" .................4];78......4];589))))))))))k................. ",
" ................#b;%l......#b;-=#b;;;;;;;;;]4................. ",
" ................=-;b#'.....=-;b#mn%%%%%%-;;0.o................ ",
" ...............85;]p^qp....'))9.1rrrrrrs(;2^,tu............... ",
" ...............};;e.v;b#...............w;;}.x;y#.............. ",
" ...............$;<*.$;-z..............^2;d,A];iB.............. ",
" ...............|%;78p];78............#6;<:#C;<)............... ",
" ...............#6;;}._;;}............m&;D1l%;EF............... ",
" ................9>;>9,>;>9...........14)915;]4................ ",
" .................};;6#G<;0..H@@@@@@@@@@@@I<;0................. ",
" .................87;%|1i;]4.J%%%%%%%%%%%%-;>9................. ",
" ..................l%;EF|%;/1p];;;;;;;;;;;;;K.................. ",
" ..................#b;<:#[;<:.a000000000000~L.................. ",
" ...................9))'.^];d,................................. ",
" .........................~;;M0000000a......................... ",
" .........................,N;;;;;;;;-O......................... ",
" ..........................=((((((((6#......................... ",
" .............................................................. ",
" .............................................................. ",
" .............................................................. ",
" .............................................................. ",
" .............................................................. ",
" .............................................................. ",
" .............................................................. ",
" .............................................................. ",
" .............................................................. ",
" .............................................................  ",
"  ............................................................  ",
"  ...........................................................   ",
"   ..........................................................   ",
"    .......................................................     ",
"       .................................................        ",
"                                                                "};
