/* XPM */
static char * C:\Users\Main_000\Documents\GitHub\genix\share\pixmaps\genix128_xpm[] = {
"128 128 75 1",
" 	c None",
".	c #06F2B8",
"+	c #0CF2B8",
"@	c #3AF3BC",
"#	c #3BF3BC",
"$	c #46F3BD",
"%	c #F6FEFA",
"&	c #FAFEFD",
"*	c #F8FEFB",
"=	c #8EF6CE",
"-	c #BCF8DF",
";	c #FFFFFF",
">	c #DEFBEE",
",	c #BCF9DF",
"'	c #29F2BA",
")	c #DEFCEE",
"!	c #F8FEFC",
"~	c #B8F8DE",
"{	c #BFF9E1",
"]	c #A8F7D7",
"^	c #FEFFFE",
"/	c #FDFFFE",
"(	c #38F2BB",
"_	c #32F2BB",
":	c #DEFCEF",
"<	c #B7F8DD",
"[	c #DBFBED",
"}	c #FAFEFC",
"|	c #77F4C8",
"1	c #87F5CC",
"2	c #89F5CD",
"3	c #93F6D0",
"4	c #DEFBEF",
"5	c #21F2B9",
"6	c #CFFAE8",
"7	c #FCFFFD",
"8	c #F3FEF9",
"9	c #38F3BB",
"0	c #DCFBEE",
"a	c #F9FEFC",
"b	c #65F4C3",
"c	c #F1FEF8",
"d	c #B5F8DC",
"e	c #28F2BA",
"f	c #8EF5CE",
"g	c #6BF4C5",
"h	c #2AF2BA",
"i	c #3BF2BB",
"j	c #98F6D1",
"k	c #2FF2BA",
"l	c #90F5CF",
"m	c #08F2B8",
"n	c #FCFFFE",
"o	c #A2F7D5",
"p	c #1DF2B9",
"q	c #CBFAE6",
"r	c #E7FCF3",
"s	c #3EF3BC",
"t	c #D7FBEB",
"u	c #27F2BA",
"v	c #FBFFFD",
"w	c #B5F8DD",
"x	c #7FF5CA",
"y	c #DDFBEE",
"z	c #09F2B8",
"A	c #91F6CF",
"B	c #40F3BC",
"C	c #EBFDF5",
"D	c #47F3BD",
"E	c #90F6CF",
"F	c #51F3BF",
"G	c #B2F8DB",
"H	c #FEFFFF",
"I	c #78F4C8",
"J	c #36F2BB",
"                                                                                                                                ",
"                                                                                                                                ",
"            ........................................................................................................            ",
"         .............................................................................................................          ",
"       .................................................................................................................        ",
"      ...................................................................................................................       ",
"     .....................................................................................................................      ",
"    .......................................................................................................................     ",
"    .......................................................................................................................     ",
"   .........................................................................................................................    ",
"   .........................................................................................................................    ",
"  ..........................................................................................................................    ",
"  ...........................................................................................................................   ",
"  ...........................................................................................................................   ",
"  ...........................................................................................................................   ",
"  ...........................................................................................................................   ",
"  ...........................................................................................................................   ",
"  ...........................................................................................................................   ",
"  ...........................................................................................................................   ",
"  ...........................................................................................................................   ",
"  ...........................................................................................................................   ",
"  ...........................................................................................................................   ",
"  ...........................................................................................................................   ",
"  ...........................................................................................................................   ",
"  ...........................................................................................................................   ",
"  ...........................................................................................................................   ",
"  ...........................................................................................................................   ",
"  ...........................................................................................................................   ",
"  ...........................................................................................................................   ",
"  ...........................................................................................................................   ",
"  ...........................................................................................................................   ",
"  ....................................................+@#########################@+..........................................   ",
"  ....................................................$%&&&&&&&&&&&&&&&&&&&&&&&&&*=..........................................   ",
"  ...................................................+-;;;;;;;;;;;;;;;;;;;;;;;;;;;>@.........................................   ",
"  ...................................................=&;;;;;;;;;;;;;;;;;;;;;;;;;;;;,+........................................   ",
"  ..................................................');;;;;;;;;;;;;;;;;;;;;;;;;;;;;!$........................................   ",
"  ..................................................'~,,,,,,,,,,,,,,,,,,,,,,,,{&;;;;-+.......................................   ",
"  ............................................................................+-;;;;&=.......................................   ",
"  .............................................................................$!;;;;)'......................................   ",
"  .............................................................................+]^;;;/=......................................   ",
"  .....................................+=,,,,,,,,,,,,,,,,,,,,,,,,,,,,,,,,,,,~(.._:;;;;>@.....................................   ",
"  .....................................$!;;;;;;;;;;;;;;;;;;;;;;;;;;;;;;;;;;;;<+..=/;;;;,+....................................   ",
"  ....................................+,;;;;;;;;;;;;;;;;;;;;;;;;;;;;;;;;;;;;;!$..'[;;;;!$....................................   ",
"  ....................................$!;;;;;;;;;;;;;;;;;;;;;;;;;;;;;;;;;;;;;;-+..$!;;;;-+...................................   ",
"  ...................................'[;;;;;;;;;;;;;;;;;;;;;;;;;;;;;;;;;;;;;;;}|..+,;;;;&=...................................   ",
"  ...................................=/;;;;:,,,,,,,,,,,,,,,,,,,,,,,,,,,,,,,,,,,1...@~,,,,2...................................   ",
"  ..................................');;;;!$.................................................................................   ",
"  .................................+3/;;;;,+.................................................................................   ",
"  .................................$!;;;;:@..+@####'.........................................................................   ",
"  ................................+,;;;;/=...=*&&&*2.........................................................................   ",
"  ................................$!;;;;)'..@4;;;;)'.........................................................................   ",
"  ...............................'[;;;;&=..+,;;;;&=..........................................................................   ",
"  ...............................=/;;;;,+..$!;;;;-+..........................................................................   ",
"  ..............................');;;;!$..56;;;;!$...........................................................................   ",
"  .............................+3/;;;;,+..=7;;;;,+..............'##############################@+............................   ",
"  .............................@*;;;;:@..');;;;4@..............@[&&&&&&&&&&&&&&&&&&&&&&&&&&&&&&89............................   ",
"  .............................@*;;;/=..+3/;;;/=..............+,;;;;;;;;;;;;;;;;;;;;;;;;;;;;;;;,+............................   ",
"  .............................+-;;;0'..$!;;;;0'..............$!;;;;;;;;;;;;;;;;;;;;;;;;;;;;;;:@.............................   ",
"  ..............................$!;ab..+,;;;;ab..............+-;;;;;;;;;;;;;;;;;;;;;;;;;;;;;;/=..............................   ",
"  ..............................+,;,+..=&;;;;,+..............1&;;;;:,,,,,,,,,,,,,,,,,,,,,,,,,~'..............................   ",
"  ...............................$c$..');;;;!$..............');;;;!$.........................................................   ",
"  ...............................+9+..=/;;;;,+..............=/;;;;,+.........................................................   ",
"  ...................................@:;;;;:@..............@4;;;;>@..........................................................   ",
"  ..................................+,;;;;/=..............+,;;;;/=..+=,,,,,,,,,,,,,,,,,,,,de.................................   ",
"  ..................................$!;;;;['..............$!;;;;)'..$!;;;;;;;;;;;;;;;;;;;;,+.................................   ",
"  .................................+-;;;;!$..............+-;;;;&=..+,;;;;;;;;;;;;;;;;;;;;)@..................................   ",
"  .................................=&;;;;,+..............=&;;;;-+..$!;;;;;;;;;;;;;;;;;;;/f...................................   ",
"  ................................');;;;!$..22..........');;;;!$...d}&&&&&&&&&&&&&&;;;;;)'.._g...............................   ",
"  ................................=/;;;/3+.'))'.........'~,,,,=+...hiiiiiiiiiiiiiij/;;;/=..+<0'..............................   ",
"  ...............................@>;;;;)'..=//3+.................................k:;;;;['..$!/lm.............................   ",
"  ..............................+,;;;;n=..@4;;!$................................+o/;;;!$..pq;;rs.............................   ",
"  ..............................$!;;;;tu..~;;;;-+...............................$!;;;;,+..1v;;;,+............................   ",
"  ..............................w;;;;/3...~;;;;}x..............................'[;;;;!$..');;;;[e............................   ",
"  ..............................$!;;;;)'..$!;;;;y'.............................=/;;;/3+.zA/;;;/=.............................   ",
"  ..............................+,;;;;/=..+3/;;;/=............................');;;;)'..BC;;;;)'.............................   ",
"  ...............................$!;;;;4@..');;;;4@..........................+3/;;;/=..+,;;;;v1..............................   ",
"  ...............................+3/;;;;,+..=/;;;;,+.........................$!;;;;0'..$!;;;;65..............................   ",
"  ................................');;;;!$..'[;;;;!$.........................d&;;;ab..'[;;;;!$...............................   ",
"  .................................=&;;;;-+..$!;;;;-+........................'D~,,f+..=/;;;;,+...............................   ",
"  .................................+-;;;;&=..+,;;;;&=................................');;;;>@................................   ",
"  ..................................$!;;;;)'..sr;;;;)'..............................+3/;;;/=.................................   ",
"  ..................................+,;;;;/3+.mE/;;;/=....'#########################F!;;;;)'.................................   ",
"  ...................................@:;;;;!$..');;;;:@...d}&&&&&&&&&&&&&&&&&&&&&&&&&;;;;&=..................................   ",
"  ....................................=/;;;;,+..=&;;;;,+..$!;;;;;;;;;;;;;;;;;;;;;;;;;;;;;-+..................................   ",
"  ....................................'[;;;;!$..+-;;;;!$..+3/;;;;;;;;;;;;;;;;;;;;;;;;;;;!$...................................   ",
"  .....................................$!;;;;65..$!;;;;['..');;;;;;;;;;;;;;;;;;;;;;;;;;;<+...................................   ",
"  .....................................+,;;;;7=..+,;;;;/=...=*&&&&&&&&&&&&&&&&&&&&&&&&&[(....................................   ",
"  ......................................$!;;;;)'..@4;;;;)'..+@#########################'.....................................   ",
"  ......................................+=,,,,~'...=/;;;/3+..................................................................   ",
"  .................................................');;;;!$..................................................................   ",
"  ..................................................=&;;;;,################'.................................................   ",
"  ..................................................+,;;;;/&&&&&&&&&&&&&&&*2.................................................   ",
"  ...................................................$!;;;;;;;;;;;;;;;;;;;y'.................................................   ",
"  ...................................................+GH;;;;;;;;;;;;;;;;;}I..................................................   ",
"  ....................................................J:;;;;;;;;;;;;;;;;;,+..................................................   ",
"  .....................................................2,,,,,,,,,,,,,,,,~@...................................................   ",
"  ...........................................................................................................................   ",
"  ...........................................................................................................................   ",
"  ...........................................................................................................................   ",
"  ...........................................................................................................................   ",
"  ...........................................................................................................................   ",
"  ...........................................................................................................................   ",
"  ...........................................................................................................................   ",
"  ...........................................................................................................................   ",
"  ...........................................................................................................................   ",
"  ...........................................................................................................................   ",
"  ...........................................................................................................................   ",
"  ...........................................................................................................................   ",
"  ...........................................................................................................................   ",
"  ...........................................................................................................................   ",
"  ...........................................................................................................................   ",
"  ...........................................................................................................................   ",
"  ...........................................................................................................................   ",
"  ...........................................................................................................................   ",
"  ...........................................................................................................................   ",
"   ..........................................................................................................................   ",
"   .........................................................................................................................    ",
"   .........................................................................................................................    ",
"    .......................................................................................................................     ",
"    .......................................................................................................................     ",
"     .....................................................................................................................      ",
"      ...................................................................................................................       ",
"       .................................................................................................................        ",
"         .............................................................................................................          ",
"           ........................................................................................................             ",
"                                                                                                                                ",
"                                                                                                                                ",
"                                                                                                                                "};
