/* XPM */
static char * C:\Users\Main_000\Documents\GitHub\genix\share\pixmaps\genix16_xpm[] = {
"16 16 91 1",
" 	c None",
".	c #06F2B8",
"+	c #06EFBA",
"@	c #06ECBC",
"#	c #04F2B8",
"$	c #00F2B8",
"%	c #00F2B7",
"&	c #07F2B8",
"*	c #01F2B8",
"=	c #17F2B9",
"-	c #60F3C2",
";	c #92F6D0",
">	c #95F6D1",
",	c #96F6D1",
"'	c #92F6CF",
")	c #5CF3C1",
"!	c #03F2B8",
"~	c #2EF2BA",
"{	c #6FF4C5",
"]	c #9AF6D2",
"^	c #ADF8DA",
"/	c #D0FAE8",
"(	c #D1FBE9",
"_	c #CAFAE5",
":	c #C2F9E1",
"<	c #7EF5C9",
"[	c #05F2B8",
"}	c #6EF4C5",
"|	c #B8F8DD",
"1	c #D2FAE9",
"2	c #BDF9E0",
"3	c #B7F9DE",
"4	c #BBF9DF",
"5	c #AEF8DA",
"6	c #A4F7D6",
"7	c #76F4C7",
"8	c #30F2BB",
"9	c #02F2B8",
"0	c #C9FAE5",
"a	c #ABF7D9",
"b	c #66F4C4",
"c	c #58F3C0",
"d	c #86F5CC",
"e	c #84F5CB",
"f	c #81F5CB",
"g	c #7FF5CA",
"h	c #5AF3C1",
"i	c #78F4C8",
"j	c #B7F8DD",
"k	c #4EF3BF",
"l	c #98F6D1",
"m	c #BBF9DE",
"n	c #AFF7DA",
"o	c #A7F7D7",
"p	c #72F4C6",
"q	c #91F6CF",
"r	c #BCF9DF",
"s	c #8DF5CE",
"t	c #56F3C0",
"u	c #9EF6D4",
"v	c #94F6D0",
"w	c #B1F8DA",
"x	c #D8FBEC",
"y	c #BCF9E0",
"z	c #6CF4C5",
"A	c #98F6D2",
"B	c #C8FAE5",
"C	c #ABF8D8",
"D	c #7DF5C9",
"E	c #4BF3BE",
"F	c #77F5C7",
"G	c #B8F9DE",
"H	c #CBFAE6",
"I	c #69F4C4",
"J	c #C7FAE4",
"K	c #B8F8DE",
"L	c #CCFAE6",
"M	c #B4F8DC",
"N	c #6DF4C5",
"O	c #2BF2BA",
"P	c #61F4C2",
"Q	c #93F6D0",
"R	c #B5F8DD",
"S	c #C9FAE4",
"T	c #CDFAE6",
"U	c #6AF4C4",
"V	c #2FF2BA",
"W	c #73F4C7",
"X	c #9DF6D3",
"Y	c #5EF3C2",
"Z	c #16F2B9",
".++++++++++++++.",
"+..............@",
"+....#$%%%%$&..@",
"+..*%=-;>,')%..@",
"+.!~{]^/(_:<$[.@",
"+.%}|123456789.@",
"+.%>0abcdefgh$.@",
"+.%ijaklmnnop%.@",
"+.%qrstuvwxyz$.@",
"+.%ABCDtEFGH;%.@",
"+.$IaJ4;nKLMN$.@",
"+.!OPQRSTavU~!.@",
"+..*%VWXQYZ%*..@",
"+....9%%%$#....@",
"+..............@",
".@@@@@@@@@@@@@.."};
